<svg width="18" height="23" viewBox="0 0 18 23" fill="none" xmlns="http://www.w3.org/2000/svg">
<path d="M8 1.25C5.87827 1.25 3.84344 2.07958 2.34315 3.55625C0.842855 5.03291 0 7.0357 0 9.12402C0 14.439 7 20.4429 7.35 20.6988L8 21.25L8.65 20.6988C9 20.4429 16 14.439 16 9.12402C16 7.0357 15.1571 5.03291 13.6569 3.55625C12.1566 2.07958 10.1217 1.25 8 1.25ZM8 13.061C7.20887 13.061 6.43552 12.8301 5.77772 12.3975C5.11992 11.9649 4.60723 11.35 4.30448 10.6306C4.00173 9.91125 3.92252 9.11965 4.07686 8.35594C4.2312 7.59224 4.61216 6.89073 5.17157 6.34013C5.73098 5.78953 6.44371 5.41457 7.21964 5.26266C7.99556 5.11075 8.79983 5.18871 9.53073 5.48669C10.2616 5.78468 10.8864 6.28929 11.3259 6.93673C11.7654 7.58417 12 8.34535 12 9.12402C12 10.1682 11.5786 11.1696 10.8284 11.9079C10.0783 12.6462 9.06087 13.061 8 13.061Z" fill="#F9FAFC"/>
<path d="M8 11.2238C9.10457 11.2238 10 10.3307 10 9.22906C10 8.12739 9.10457 7.23431 8 7.23431C6.89543 7.23431 6 8.12739 6 9.22906C6 10.3307 6.89543 11.2238 8 11.2238Z" fill="#F9FAFC"/>
</svg>
