<svg width="18" height="17" viewBox="0 0 18 17" fill="none" xmlns="http://www.w3.org/2000/svg">
<path d="M9.9 9.84979C11.8882 9.84979 13.5 11.4613 13.5 13.4492V14.7989C13.5 15.5443 12.8956 16.1487 12.15 16.1487H1.35C0.604413 16.1487 0 15.5443 0 14.7989V13.4492C0 11.4613 1.61177 9.84979 3.6 9.84979H9.9ZM15.3 9.84997C16.7912 9.84997 18 11.0586 18 12.5495V13.8993C18 14.6448 17.3956 15.249 16.65 15.249H15.3V13.4492C15.3 11.9775 14.5933 10.6709 13.5007 9.84997H15.3ZM6.75 0.851379C8.98677 0.851379 10.8 2.66431 10.8 4.90066C10.8 7.13702 8.98677 8.94995 6.75 8.94995C4.51325 8.94995 2.7 7.13702 2.7 4.90066C2.7 2.66431 4.51325 0.851379 6.75 0.851379ZM14.4 3.5509C15.8912 3.5509 17.1 4.75952 17.1 6.25043C17.1 7.74137 15.8912 8.94995 14.4 8.94995C12.9088 8.94995 11.7 7.74137 11.7 6.25043C11.7 4.75952 12.9088 3.5509 14.4 3.5509Z" fill="#F9FAFC"/>
</svg>
