<svg width="18" height="19" viewBox="0 0 18 19" fill="none" xmlns="http://www.w3.org/2000/svg">
<path d="M13 0.5H5C1.5 0.5 0 2.3 0 5V14C0 16.7 1.5 18.5 5 18.5H13C16.5 18.5 18 16.7 18 14V5C18 2.3 16.5 0.5 13 0.5ZM5 9.725H9C9.41 9.725 9.75 10.031 9.75 10.4C9.75 10.769 9.41 11.075 9 11.075H5C4.59 11.075 4.25 10.769 4.25 10.4C4.25 10.031 4.59 9.725 5 9.725ZM13 14.675H5C4.59 14.675 4.25 14.369 4.25 14C4.25 13.631 4.59 13.325 5 13.325H13C13.41 13.325 13.75 13.631 13.75 14C13.75 14.369 13.41 14.675 13 14.675ZM15.5 7.025H13.5C11.98 7.025 10.75 5.918 10.75 4.55V2.75C10.75 2.381 11.09 2.075 11.5 2.075C11.91 2.075 12.25 2.381 12.25 2.75V4.55C12.25 5.171 12.81 5.675 13.5 5.675H15.5C15.91 5.675 16.25 5.981 16.25 6.35C16.25 6.719 15.91 7.025 15.5 7.025Z" fill="#F9FAFC"/>
</svg>
